<?xml version="1.0" encoding="UTF-8" standalone="no"?>
<!DOCTYPE svg PUBLIC "-//W3C//DTD SVG 1.1//EN" "http://www.w3.org/Graphics/SVG/1.1/DTD/svg11.dtd">
<svg xmlns="http://www.w3.org/2000/svg" version="1.1" viewBox="0 0 140 192" width="140.0pt" height="192.0pt">
<path d="M 0.00 0.00 L 140.00 0.00 L 140.00 192.00 L 0.00 192.00 L 0.00 0.00 Z" fill="#ffffff" />
<path d="M 57.00 4.38 C 67.68 4.49 78.37 4.30 89.04 4.46 C 92.01 4.90 94.50 5.99 97.62 5.80 C 100.82 7.27 103.90 8.72 107.27 9.81 C 112.52 12.26 116.97 16.96 120.86 21.16 C 122.64 23.15 124.72 25.14 126.00 27.48 C 126.61 29.65 126.36 32.08 127.09 34.24 C 128.24 37.76 130.39 40.19 130.48 44.01 C 130.69 47.37 131.35 50.64 131.38 54.00 C 131.29 81.00 131.40 108.00 131.32 135.00 C 131.35 139.02 130.74 142.97 130.56 146.97 C 130.46 148.60 130.39 150.12 129.60 151.59 C 128.43 153.84 128.37 156.27 127.62 158.65 C 126.41 161.93 124.51 164.70 122.44 167.47 C 120.90 169.52 120.54 171.81 118.15 173.12 C 117.14 174.59 116.86 176.12 115.05 176.91 C 110.87 178.74 106.89 180.64 102.96 182.96 C 100.98 184.18 98.72 183.25 96.79 184.78 C 92.53 187.69 87.81 186.52 83.00 186.53 C 71.67 186.50 60.33 186.53 49.00 186.53 C 44.86 186.73 40.85 184.73 36.77 183.61 C 34.46 183.08 32.94 181.08 30.64 180.87 C 27.86 180.76 27.04 178.57 25.01 177.03 C 23.02 175.22 19.50 174.22 18.43 171.67 C 16.58 167.17 13.56 163.47 11.81 158.91 C 9.89 156.45 9.16 155.68 9.15 152.42 C 6.12 146.08 6.78 139.81 6.73 133.00 C 6.72 106.67 6.76 80.33 6.71 54.00 C 6.72 49.63 7.61 45.42 8.79 41.24 C 9.49 38.64 9.24 35.92 9.73 33.32 C 11.73 28.18 14.86 23.64 18.86 19.86 C 19.99 19.34 21.41 19.20 22.41 18.46 C 27.41 13.51 33.22 8.67 39.70 5.81 C 45.45 5.26 51.22 4.23 57.00 4.38 Z" fill="#e7e7e7" />
<path d="M 47.01 8.04 C 61.65 8.15 76.37 7.92 90.97 8.09 C 95.14 9.05 100.95 10.06 103.91 13.35 C 98.89 11.57 94.49 9.36 89.03 9.04 C 75.35 8.90 61.65 8.73 47.97 9.09 C 44.89 9.44 41.88 10.70 38.86 11.41 C 40.65 9.12 44.32 8.65 47.01 8.04 Z" fill="#cbcbcb" />
<path d="M 47.97 9.09 C 61.65 8.73 75.35 8.90 89.03 9.04 C 94.49 9.36 98.89 11.57 103.91 13.35 C 107.01 16.22 110.65 18.55 114.03 21.06 C 116.10 23.07 117.03 25.81 119.41 27.62 C 120.49 29.54 121.58 31.47 122.64 33.41 C 123.00 34.07 123.36 34.72 123.73 35.38 L 124.33 37.18 L 124.87 38.20 L 125.26 40.09 C 125.46 40.60 125.67 41.10 125.89 41.60 C 125.67 44.21 126.95 46.43 127.00 48.97 C 127.02 77.38 126.97 106.00 127.01 134.38 L 127.98 133.79 C 128.18 105.18 128.12 76.36 128.01 47.74 C 129.03 50.76 128.67 53.81 128.70 57.00 C 128.60 85.01 128.81 113.04 128.57 141.04 C 128.65 142.66 127.98 143.87 127.30 145.26 C 127.73 141.69 127.36 138.07 127.61 134.48 L 126.12 134.63 C 87.56 134.64 48.94 134.80 10.39 134.57 L 10.36 134.34 L 11.01 132.94 C 10.99 107.63 11.01 82.32 11.00 57.00 C 11.01 53.97 10.80 50.80 11.24 47.81 C 11.48 46.98 11.70 46.15 11.90 45.31 C 12.16 44.25 12.23 43.15 12.11 42.01 C 12.34 41.40 12.58 40.78 12.80 40.17 L 13.17 38.25 C 15.41 34.98 15.72 30.22 19.49 28.75 C 19.32 28.19 19.16 27.63 18.99 27.07 L 19.04 26.33 C 21.20 24.69 22.70 22.56 24.69 20.75 C 28.92 16.82 34.01 14.30 38.86 11.41 C 41.88 10.70 44.89 9.44 47.97 9.09 Z" fill="#ffffff" />
<path d="M 18.40 26.36 L 19.04 26.33 L 18.99 27.07 L 18.40 26.36 Z" fill="#b3b3b3" />
<path d="M 120.63 27.87 C 121.50 28.98 122.21 30.16 122.97 31.35 C 122.87 32.03 122.76 32.72 122.64 33.41 C 121.58 31.47 120.49 29.54 119.41 27.62 L 120.63 27.87 Z" fill="#cacaca" />
<path d="M 67.32 28.19 C 65.34 30.15 63.02 30.23 60.44 30.71 C 60.20 34.02 60.65 37.31 60.46 40.61 C 59.84 41.05 59.22 41.48 58.60 41.90 C 58.56 42.43 58.52 42.95 58.48 43.47 C 60.93 43.71 62.88 43.02 64.66 45.20 C 59.85 45.49 55.20 46.40 50.58 47.75 C 50.58 45.48 51.67 43.26 51.96 40.98 C 52.87 37.44 53.17 33.04 54.77 29.84 C 58.97 29.09 63.00 28.07 67.32 28.19 Z" fill="#025e15" />
<path d="M 67.32 28.19 L 68.08 28.16 C 70.65 28.10 73.21 28.26 75.77 28.48 C 75.41 31.99 75.66 35.45 75.56 38.99 C 75.58 41.11 75.33 43.55 76.19 45.51 C 72.36 45.08 68.51 45.03 64.66 45.20 C 62.88 43.02 60.93 43.71 58.48 43.47 C 58.52 42.95 58.56 42.43 58.60 41.90 C 59.22 41.48 59.84 41.05 60.46 40.61 C 60.65 37.31 60.20 34.02 60.44 30.71 C 63.02 30.23 65.34 30.15 67.32 28.19 Z" fill="#028c2d" />
<path d="M 75.77 28.48 C 78.35 28.58 80.71 29.53 83.27 29.79 L 83.66 31.00 C 82.89 31.94 82.20 32.93 81.60 33.97 C 81.45 38.32 81.01 42.43 82.82 46.53 C 80.59 46.25 78.43 45.69 76.19 45.51 C 75.33 43.55 75.58 41.11 75.56 38.99 C 75.66 35.45 75.41 31.99 75.77 28.48 Z" fill="#75b50e" />
<path d="M 83.66 31.00 C 85.13 35.95 86.58 42.66 87.72 47.80 C 86.04 47.48 84.53 46.72 82.82 46.53 C 81.01 42.43 81.45 38.32 81.60 33.97 C 82.20 32.93 82.89 31.94 83.66 31.00 Z" fill="#bdcc08" />
<path d="M 123.73 35.38 C 125.42 35.37 125.62 35.97 124.33 37.18 L 123.73 35.38 Z" fill="#b4b4b4" />
<path d="M 13.17 38.25 L 12.80 40.17 C 11.40 38.99 11.52 38.35 13.17 38.25 Z" fill="#b1b1b1" />
<path d="M 124.87 38.20 C 126.52 38.34 126.65 38.97 125.26 40.09 L 124.87 38.20 Z" fill="#b3b3b3" />
<path d="M 12.11 42.01 C 12.23 43.15 12.16 44.25 11.90 45.31 C 10.72 44.72 10.50 42.19 12.11 42.01 Z" fill="#b1b1b1" />
<path d="M 125.89 41.60 C 127.12 43.41 127.30 45.62 128.01 47.74 C 128.12 76.36 128.18 105.18 127.98 133.79 L 127.01 134.38 C 126.97 106.00 127.02 77.38 127.00 48.97 C 126.95 46.43 125.67 44.21 125.89 41.60 Z" fill="#b7b7b7" />
<path d="M 10.07 47.26 L 11.24 47.81 C 10.80 50.80 11.01 53.97 11.00 57.00 C 11.01 82.32 10.99 107.63 11.01 132.94 L 10.36 134.34 C 10.06 133.27 9.93 132.15 10.00 130.99 C 10.05 103.08 9.90 75.16 10.07 47.26 Z" fill="#aeaeae" />
<path d="M 87.80 49.51 C 88.80 52.60 89.38 55.89 90.08 59.06 C 86.59 60.03 81.68 61.59 79.21 57.98 C 77.40 54.60 73.75 54.46 70.36 54.00 C 70.00 51.83 69.97 49.42 69.09 47.40 C 67.65 49.08 68.00 51.89 67.71 54.01 C 64.65 54.34 61.93 54.78 59.22 56.35 C 59.38 57.34 59.64 58.32 60.01 59.29 C 59.40 59.92 58.73 60.45 58.01 60.88 C 54.57 60.61 51.15 60.18 47.71 59.94 C 48.12 56.49 49.30 53.23 49.70 49.78 C 61.93 46.13 75.47 46.57 87.80 49.51 Z" fill="#e1c375" />
<path d="M 39.74 54.26 C 38.82 55.94 37.43 58.04 37.72 60.02 C 39.66 65.67 46.21 68.47 51.46 70.19 C 49.46 71.26 47.70 71.32 45.48 71.33 C 45.41 74.75 43.98 77.34 42.11 80.12 C 38.40 77.62 34.84 73.94 33.75 69.49 C 32.07 63.80 35.05 57.55 39.74 54.26 Z" fill="#ea1012" />
<path d="M 99.15 54.20 C 102.20 58.02 105.21 61.80 104.66 67.03 C 104.49 72.91 99.77 77.87 94.98 80.74 L 94.35 81.12 C 93.62 77.75 93.24 74.65 93.37 71.21 C 92.09 70.27 90.69 69.91 89.16 69.60 C 89.58 70.28 90.01 70.96 90.45 71.63 C 89.33 74.71 87.21 76.62 84.65 78.52 C 84.48 79.25 84.32 79.99 84.15 80.72 C 82.77 81.14 78.93 80.61 78.27 81.64 C 80.17 82.14 82.08 82.55 83.95 83.12 C 82.68 85.12 78.95 84.45 76.96 85.61 C 78.02 85.88 79.08 86.12 80.14 86.33 C 78.37 86.58 76.66 86.66 74.92 87.14 C 73.90 87.21 72.87 87.26 71.84 87.29 C 72.69 86.77 73.53 86.22 74.35 85.64 C 74.47 83.60 74.48 81.56 74.34 79.52 C 73.59 79.03 72.85 78.54 72.10 78.05 C 73.29 77.91 74.48 77.77 75.68 77.62 C 74.75 76.85 73.83 76.08 72.92 75.30 C 75.22 74.94 77.53 74.70 79.84 74.43 C 76.75 74.10 74.03 74.69 71.46 72.61 C 79.24 72.24 87.89 70.86 94.61 66.71 C 97.52 64.81 100.25 62.80 100.50 59.03 C 100.10 57.41 99.59 55.81 99.15 54.20 Z" fill="#ae1209" />
<path d="M 67.50 55.32 C 67.63 56.72 67.42 57.87 66.88 58.80 C 64.82 58.74 63.06 58.38 61.48 56.93 C 63.02 55.60 65.56 55.72 67.50 55.32 Z" fill="#d7be70" />
<path d="M 70.67 55.45 C 72.37 56.13 76.49 54.97 75.79 57.87 C 74.20 58.38 72.56 58.64 70.91 58.88 C 70.71 57.76 70.63 56.62 70.67 55.45 Z" fill="#d7c473" />
<path d="M 79.21 57.98 C 81.68 61.59 86.59 60.03 90.08 59.06 C 90.53 60.93 91.02 62.79 91.46 64.66 L 90.72 64.93 C 89.69 64.49 88.94 63.45 87.79 63.84 C 84.28 64.64 80.71 64.88 77.22 65.78 C 74.07 65.55 72.51 63.25 71.22 60.65 C 74.43 60.46 76.49 59.59 79.21 57.98 Z" fill="#cdaf68" />
<path d="M 60.01 59.29 C 62.29 59.79 64.39 60.60 66.76 60.67 C 66.28 63.28 66.59 66.30 65.78 68.75 C 59.54 68.63 51.84 67.74 46.55 64.26 C 46.99 62.83 47.42 61.41 47.71 59.94 C 51.15 60.18 54.57 60.61 58.01 60.88 C 58.73 60.45 59.40 59.92 60.01 59.29 Z" fill="#c7a863" />
<path d="M 71.22 60.65 C 72.51 63.25 74.07 65.55 77.22 65.78 C 80.71 64.88 84.28 64.64 87.79 63.84 C 88.94 63.45 89.69 64.49 90.72 64.93 C 84.78 67.54 78.59 68.39 72.16 68.77 C 71.76 66.08 71.55 63.36 71.22 60.65 Z" fill="#b28d4d" />
<path d="M 51.46 70.19 C 53.05 70.57 54.63 70.97 56.20 71.44 C 57.01 72.40 57.82 73.36 58.58 74.37 C 56.32 75.74 54.60 76.76 54.06 79.54 C 55.68 79.78 57.30 79.99 58.91 80.25 C 58.23 81.16 56.04 80.77 54.98 81.03 C 52.31 81.11 49.91 81.97 47.47 82.99 C 46.00 82.25 44.54 81.50 43.06 80.77 L 42.11 80.12 C 43.98 77.34 45.41 74.75 45.48 71.33 C 47.70 71.32 49.46 71.26 51.46 70.19 Z" fill="#ca150f" />
<path d="M 89.16 69.60 C 90.69 69.91 92.09 70.27 93.37 71.21 C 93.24 74.65 93.62 77.75 94.35 81.12 C 89.92 83.65 85.10 85.25 80.14 86.33 C 79.08 86.12 78.02 85.88 76.96 85.61 C 78.95 84.45 82.68 85.12 83.95 83.12 C 82.08 82.55 80.17 82.14 78.27 81.64 C 78.93 80.61 82.77 81.14 84.15 80.72 C 84.32 79.99 84.48 79.25 84.65 78.52 C 87.21 76.62 89.33 74.71 90.45 71.63 C 90.01 70.96 89.58 70.28 89.16 69.60 Z" fill="#961002" />
<path d="M 56.20 71.44 C 59.43 71.98 62.65 72.39 65.91 72.60 C 64.88 75.18 64.68 78.03 63.63 80.57 C 62.88 80.92 62.13 81.27 61.38 81.62 C 62.22 81.83 63.07 82.05 63.92 82.27 C 63.34 83.86 62.61 85.37 61.85 86.87 C 57.69 86.50 53.90 85.46 49.97 84.13 C 49.12 83.78 48.29 83.40 47.47 82.99 C 49.91 81.97 52.31 81.11 54.98 81.03 C 56.04 80.77 58.23 81.16 58.91 80.25 C 57.30 79.99 55.68 79.78 54.06 79.54 C 54.60 76.76 56.32 75.74 58.58 74.37 C 57.82 73.36 57.01 72.40 56.20 71.44 Z" fill="#b8130a" />
<path d="M 65.91 72.60 C 67.76 72.61 69.61 72.62 71.46 72.61 C 74.03 74.69 76.75 74.10 79.84 74.43 C 77.53 74.70 75.22 74.94 72.92 75.30 C 73.83 76.08 74.75 76.85 75.68 77.62 C 74.48 77.77 73.29 77.91 72.10 78.05 C 72.85 78.54 73.59 79.03 74.34 79.52 C 74.48 81.56 74.47 83.60 74.35 85.64 C 73.53 86.22 72.69 86.77 71.84 87.29 C 69.17 87.33 66.48 87.39 63.82 87.20 L 61.85 86.87 C 62.61 85.37 63.34 83.86 63.92 82.27 C 63.07 82.05 62.22 81.83 61.38 81.62 C 62.13 81.27 62.88 80.92 63.63 80.57 C 64.68 78.03 64.88 75.18 65.91 72.60 Z" fill="#d21510" />
<path d="M 43.06 80.77 C 44.54 81.50 46.00 82.25 47.47 82.99 C 48.29 83.40 49.12 83.78 49.97 84.13 L 49.54 85.75 C 51.72 86.59 53.83 87.13 55.88 88.25 C 55.91 89.01 55.81 89.72 55.57 90.37 C 52.60 91.98 49.75 93.49 47.21 95.76 C 46.96 94.50 46.70 93.24 46.43 91.98 C 45.67 93.38 45.41 94.89 45.09 96.43 C 44.52 96.83 43.95 97.23 43.37 97.63 C 44.06 97.95 44.75 98.26 45.43 98.58 C 45.39 99.17 45.34 99.77 45.30 100.36 C 43.26 100.37 41.22 100.41 39.18 100.33 C 39.89 93.74 41.65 87.24 43.06 80.77 Z" fill="#d1d2d4" />
<path d="M 94.35 81.12 L 94.98 80.74 C 95.74 85.90 97.51 90.89 97.85 96.08 C 96.41 96.34 94.94 96.49 93.51 96.82 C 91.34 98.27 89.90 100.43 87.04 100.40 C 83.85 100.40 80.08 101.00 77.05 100.00 C 76.00 95.79 75.81 91.39 74.92 87.14 C 76.66 86.66 78.37 86.58 80.14 86.33 C 85.10 85.25 89.92 83.65 94.35 81.12 Z" fill="#d6d7d7" />
<path d="M 49.97 84.13 C 53.90 85.46 57.69 86.50 61.85 86.87 L 63.82 87.20 C 61.84 89.97 62.32 93.80 60.24 96.36 C 59.49 95.84 58.85 95.32 58.33 94.79 C 56.36 96.80 53.62 97.61 51.39 99.37 C 49.71 100.86 47.40 100.22 45.30 100.36 C 45.34 99.77 45.39 99.17 45.43 98.58 C 44.75 98.26 44.06 97.95 43.37 97.63 C 43.95 97.23 44.52 96.83 45.09 96.43 C 45.41 94.89 45.67 93.38 46.43 91.98 C 46.70 93.24 46.96 94.50 47.21 95.76 C 49.75 93.49 52.60 91.98 55.57 90.37 C 55.81 89.72 55.91 89.01 55.88 88.25 C 53.83 87.13 51.72 86.59 49.54 85.75 L 49.97 84.13 Z" fill="#dcdcdd" />
<path d="M 42.14 109.89 C 42.42 110.51 42.70 111.14 42.97 111.77 C 42.31 112.13 41.65 112.50 40.98 112.85 C 39.91 109.59 33.13 111.65 35.98 114.98 C 38.02 115.84 39.94 116.91 41.96 117.82 C 43.76 119.99 43.93 122.28 42.89 124.86 C 41.98 127.04 39.08 127.88 36.96 127.61 C 34.42 127.44 32.76 125.28 31.87 123.09 C 32.25 122.40 32.98 121.95 34.08 121.74 C 34.94 123.22 35.19 124.36 36.76 125.39 C 39.66 125.41 40.53 124.60 41.37 121.94 C 40.02 118.33 36.47 118.68 33.65 116.37 C 33.26 115.27 32.91 114.17 32.60 113.05 C 33.95 108.73 38.38 107.81 42.14 109.89 Z" fill="#010357" />
<path d="M 95.56 109.20 L 96.60 109.33 C 99.15 115.46 102.04 121.48 104.80 127.53 L 102.01 127.27 C 101.03 126.02 100.87 124.31 99.76 123.21 C 97.40 122.94 94.87 123.13 92.48 123.18 C 91.41 124.46 91.12 126.16 90.13 127.45 L 87.32 127.35 C 90.41 121.54 93.11 115.30 95.56 109.20 Z" fill="#102074" />
<path d="M 45.90 111.96 C 48.66 111.95 51.42 111.95 54.18 111.96 L 54.36 114.22 C 52.26 114.13 50.16 114.15 48.06 114.18 C 48.05 115.39 48.05 116.60 48.07 117.81 C 50.12 117.85 52.17 117.85 54.22 117.85 L 54.02 120.04 C 52.09 120.15 50.13 120.04 48.18 120.04 C 48.12 121.78 48.10 123.52 48.12 125.26 C 50.22 125.39 52.37 125.05 54.44 125.42 C 54.37 126.10 54.29 126.77 54.18 127.44 C 51.40 127.27 48.61 127.23 45.83 127.44 C 45.77 122.30 45.68 117.08 45.90 111.96 Z" fill="#12296d" />
<path d="M 56.44 112.13 C 58.82 112.15 62.57 111.58 64.12 113.84 C 65.87 116.80 64.71 119.94 61.37 120.94 C 63.14 122.91 64.83 125.20 66.24 127.43 C 65.27 127.39 64.31 127.29 63.36 127.15 C 61.71 124.91 60.40 122.29 58.42 120.33 C 58.58 122.68 58.62 125.03 58.62 127.39 C 57.90 127.38 57.18 127.38 56.46 127.38 C 56.46 122.30 56.48 117.22 56.44 112.13 Z" fill="#03084a" />
<path d="M 67.55 112.12 C 68.23 112.04 68.92 111.99 69.61 111.96 C 69.70 117.07 69.55 122.19 69.67 127.30 C 68.98 127.32 68.30 127.34 67.61 127.36 C 67.53 122.28 67.63 117.20 67.55 112.12 Z" fill="#050345" />
<path d="M 72.57 111.96 C 75.38 112.36 78.15 111.69 80.92 112.12 C 80.95 112.84 80.85 113.51 80.63 114.13 C 78.63 114.17 76.63 114.11 74.63 114.24 L 74.64 117.75 C 76.71 117.94 78.71 117.67 80.75 118.04 L 80.71 119.93 C 78.83 120.38 76.63 119.92 74.67 120.09 C 74.64 121.82 74.64 123.55 74.67 125.27 C 76.78 125.36 78.89 125.38 81.01 125.32 L 81.13 127.36 C 78.26 127.36 75.44 127.23 72.59 127.42 C 72.46 122.28 72.52 117.11 72.57 111.96 Z" fill="#03145a" />
<path d="M 58.53 114.11 C 61.60 113.98 63.78 114.76 62.59 118.28 C 61.18 118.82 60.23 119.63 58.66 119.15 C 58.64 117.47 58.50 115.79 58.53 114.11 Z" fill="#fbfdea" />
<path d="M 96.39 114.57 C 97.04 116.67 98.12 118.55 98.91 120.59 C 97.02 120.70 95.14 120.65 93.26 120.61 C 93.85 119.38 94.60 118.13 94.92 116.82 C 95.38 116.03 95.06 114.09 96.39 114.57 Z" fill="#f2f6fa" />
<path d="M 10.39 134.57 C 48.94 134.80 87.56 134.64 126.12 134.63 C 125.23 137.64 125.21 140.69 124.87 143.79 L 124.18 143.90 C 123.95 141.41 123.92 138.90 123.66 136.41 C 109.46 136.45 95.29 135.85 81.10 136.05 C 75.39 136.22 69.75 135.59 64.06 136.04 C 46.26 135.78 28.46 135.13 10.63 135.78 L 10.39 134.57 Z" fill="#032a63" />
<path d="M 126.12 134.63 L 127.61 134.48 C 127.36 138.07 127.73 141.69 127.30 145.26 C 125.77 154.41 122.20 162.95 115.71 169.70 C 108.47 177.44 98.56 182.24 88.08 183.55 C 88.25 182.78 88.43 182.00 88.61 181.23 C 80.40 181.13 72.14 181.22 63.94 180.81 L 64.24 179.98 C 71.93 178.71 79.97 179.74 87.71 178.84 L 87.77 178.13 C 81.79 177.56 75.72 178.07 69.72 177.86 C 74.56 176.71 79.10 177.53 83.78 175.68 C 84.37 171.75 85.09 168.00 82.10 164.86 C 81.66 158.88 82.14 152.77 82.10 146.77 C 79.73 146.29 77.58 146.42 75.93 144.38 C 77.61 144.45 79.28 144.59 80.96 144.58 C 81.28 141.73 81.18 138.91 81.10 136.05 C 95.29 135.85 109.46 136.45 123.66 136.41 C 123.92 138.90 123.95 141.41 124.18 143.90 L 124.87 143.79 C 125.21 140.69 125.23 137.64 126.12 134.63 Z" fill="#023a6a" />
<path d="M 10.63 135.78 C 28.46 135.13 46.26 135.78 64.06 136.04 C 64.05 138.60 64.05 141.13 63.70 143.67 C 62.54 144.20 61.37 144.72 60.22 145.26 L 60.15 146.74 C 60.11 148.05 60.03 149.35 59.90 150.65 C 58.30 153.02 58.75 153.78 59.82 156.21 C 61.76 159.90 60.32 163.63 61.39 167.34 C 65.25 168.86 63.91 172.32 63.75 175.60 C 61.28 175.84 58.77 175.78 56.31 176.08 L 56.09 176.69 C 60.63 176.91 65.20 178.33 69.72 177.86 C 75.72 178.07 81.79 177.56 87.77 178.13 L 87.71 178.84 C 79.97 179.74 71.93 178.71 64.24 179.98 L 63.94 180.81 C 72.14 181.22 80.40 181.13 88.61 181.23 C 88.43 182.00 88.25 182.78 88.08 183.55 C 80.19 183.73 72.26 183.65 64.36 183.67 C 62.63 181.43 60.48 182.24 58.00 182.03 C 54.44 182.16 50.83 181.68 47.61 183.23 C 40.76 182.00 34.29 179.50 28.72 175.27 C 16.07 166.40 9.50 151.06 10.63 135.78 Z" fill="#024f89" />
<path d="M 64.06 136.04 C 69.75 135.59 75.39 136.22 81.10 136.05 C 81.18 138.91 81.28 141.73 80.96 144.58 C 79.28 144.59 77.61 144.45 75.93 144.38 C 77.58 146.42 79.73 146.29 82.10 146.77 C 80.59 146.76 79.08 146.74 77.57 146.72 C 77.43 148.30 77.48 149.89 77.43 151.47 L 76.14 153.15 C 75.87 156.95 75.65 160.97 76.09 164.76 L 77.33 166.31 L 77.32 166.54 L 76.77 167.57 C 77.91 168.17 81.47 168.62 81.65 166.76 L 82.10 164.86 C 85.09 168.00 84.37 171.75 83.78 175.68 C 79.10 177.53 74.56 176.71 69.72 177.86 C 65.20 178.33 60.63 176.91 56.09 176.69 L 56.31 176.08 C 58.77 175.78 61.28 175.84 63.75 175.60 C 63.91 172.32 65.25 168.86 61.39 167.34 C 60.32 163.63 61.76 159.90 59.82 156.21 C 58.75 153.78 58.30 153.02 59.90 150.65 C 61.63 151.26 63.32 151.17 65.12 151.22 C 65.06 156.30 65.13 161.38 65.11 166.47 C 66.55 166.62 68.01 166.64 69.49 166.54 C 69.71 161.36 69.19 155.91 69.74 150.80 C 70.16 155.77 69.52 160.84 70.10 165.77 L 70.88 166.07 C 71.07 161.09 70.96 156.09 71.05 151.10 C 72.15 151.14 73.26 151.13 74.36 151.07 C 74.49 149.63 74.53 148.18 74.49 146.73 C 69.71 146.79 64.93 146.73 60.15 146.74 L 60.22 145.26 C 61.37 144.72 62.54 144.20 63.70 143.67 C 64.05 141.13 64.05 138.60 64.06 136.04 Z" fill="#00457a" />
<path d="M 31.86 146.76 C 39.24 146.76 46.64 146.77 54.02 146.81 L 54.76 147.15 C 54.93 148.37 54.91 149.58 54.72 150.78 C 48.31 151.55 40.56 150.86 33.94 151.12 C 33.05 151.20 32.22 151.02 31.45 150.57 C 31.05 149.05 31.23 148.18 31.86 146.76 Z" fill="#f1091b" />
<path d="M 60.15 146.74 C 64.93 146.73 69.71 146.79 74.49 146.73 C 74.53 148.18 74.49 149.63 74.36 151.07 C 73.26 151.13 72.15 151.14 71.05 151.10 L 69.74 150.80 C 69.19 155.91 69.71 161.36 69.49 166.54 C 68.01 166.64 66.55 166.62 65.11 166.47 C 65.13 161.38 65.06 156.30 65.12 151.22 C 63.32 151.17 61.63 151.26 59.90 150.65 C 60.03 149.35 60.11 148.05 60.15 146.74 Z" fill="#fcfbfb" />
<path d="M 77.57 146.72 C 79.08 146.74 80.59 146.76 82.10 146.77 C 82.14 152.77 81.66 158.88 82.10 164.86 L 81.65 166.76 C 80.22 166.57 78.77 166.54 77.32 166.54 L 77.33 166.31 C 77.46 161.37 77.43 156.42 77.43 151.47 C 77.48 149.89 77.43 148.30 77.57 146.72 Z" fill="#fbfdf9" />
<path d="M 85.59 146.74 C 87.37 146.75 89.15 146.75 90.93 146.73 C 92.60 150.53 94.32 154.39 95.50 158.37 L 96.14 158.64 C 97.12 154.54 98.93 150.57 100.81 146.83 C 102.38 146.80 103.95 146.75 105.52 146.66 C 105.71 153.25 105.68 159.89 105.59 166.49 C 104.05 166.60 102.52 166.59 101.00 166.48 C 101.12 162.66 101.14 158.82 101.22 154.99 C 99.67 157.60 98.77 160.71 97.55 163.50 C 96.31 163.44 95.07 163.36 93.84 163.28 C 92.43 160.54 91.89 157.76 89.92 155.41 C 90.11 159.11 90.47 162.70 90.12 166.43 C 88.63 166.61 87.15 166.64 85.68 166.53 C 85.57 159.94 85.66 153.33 85.59 146.74 Z" fill="#f9fcf7" />
<path d="M 69.74 150.80 L 71.05 151.10 C 70.96 156.09 71.07 161.09 70.88 166.07 L 70.10 165.77 C 69.52 160.84 70.16 155.77 69.74 150.80 Z" fill="#0d1e69" />
<path d="M 77.43 151.47 C 77.43 156.42 77.46 161.37 77.33 166.31 L 76.09 164.76 C 75.65 160.97 75.87 156.95 76.14 153.15 L 77.43 151.47 Z" fill="#002754" />
<path d="M 31.55 154.60 C 34.60 154.61 37.66 154.65 40.72 154.57 C 40.82 155.93 40.83 157.26 40.74 158.62 C 37.67 158.60 34.59 158.71 31.53 158.55 C 31.23 157.18 31.29 155.97 31.55 154.60 Z" fill="#fa040c" />
<path d="M 45.34 154.55 C 48.43 154.57 51.53 154.52 54.63 154.60 C 54.83 155.95 54.92 157.24 54.80 158.59 C 51.69 158.72 48.57 158.67 45.46 158.69 C 45.37 157.31 45.29 155.94 45.34 154.55 Z" fill="#f10914" />
<path d="M 31.39 162.35 C 34.53 162.24 37.68 162.33 40.82 162.29 C 40.85 163.69 40.88 165.06 40.60 166.44 C 37.64 166.61 34.63 166.54 31.67 166.48 C 31.40 165.10 31.25 163.76 31.39 162.35 Z" fill="#f80518" />
<path d="M 45.36 162.39 C 48.48 162.30 51.59 162.47 54.71 162.30 C 54.79 163.69 54.87 165.06 54.72 166.45 C 51.64 166.64 48.54 166.50 45.45 166.51 C 45.38 165.13 45.31 163.77 45.36 162.39 Z" fill="#f50613" />
<path d="M 77.32 166.54 C 78.77 166.54 80.22 166.57 81.65 166.76 C 81.47 168.62 77.91 168.17 76.77 167.57 L 77.32 166.54 Z" fill="#022956" />
<path d="M 58.00 182.03 C 60.48 182.24 62.63 181.43 64.36 183.67 C 58.79 183.72 53.15 183.81 47.61 183.23 C 50.83 181.68 54.44 182.16 58.00 182.03 Z" fill="#005ba5" />
</svg>